# xmcd CD database file
#
# Track frame offsets:
#	150
#	22588
#	43399
#	56194
#	70423
#	88536
#	103706
#	122234
#	138214
#	157504
#	169669
#	187226
#
# Disc length: 2777 seconds
#
# Revision: 0
# Processed by: cddbd v1.5.2PL0 Copyright (c) Steve Scherf et al.
# Submitted via: CDex 1.51
#
DISCID=9f0ad70c
DTITLE=Elsie Bianchi - Fly me to the Moon
DYEAR=1962
DGENRE=Jazz
TTITLE0=I Remember Clifford
TTITLE1=Hot Dig A Dee
TTITLE2=No Moon At All
TTITLE3=Paradise
TTITLE4=Fyl Me To The Moon
TTITLE5=Baron Lazar
TTITLE6=Secret Love
TTITLE7=Canadian Sunset
TTITLE8=Happy Little Sunbeam
TTITLE9=But Not For Me
TTITLE10=I Feel Pretty
TTITLE11=Misty
EXTD=YEAR: 1962
EXTT0=
EXTT1=
EXTT2=
EXTT3=
EXTT4=
EXTT5=
EXTT6=
EXTT7=
EXTT8=
EXTT9=
EXTT10=
EXTT11=
PLAYORDER=
